HIERARCHY
ROOT Hips
{
	OFFSET 0.000000 0.000000 0.000000
	CHANNELS 6 Xposition Yposition Zposition Xrotation Yrotation Zrotation
	JOINT LeftUpLeg_virtual
	{
		OFFSET 0.000000 0.000000 0.000000
		CHANNELS 3 Xrotation Yrotation Zrotation
		JOINT LeftUpLeg
		{
			OFFSET 13.026900 -6.336304 -1.092800
			CHANNELS 3 Xrotation Yrotation Zrotation
			JOINT LeftLeg
			{
				OFFSET 0.524474 -46.096886 9.782700
				CHANNELS 3 Xrotation Yrotation Zrotation
				JOINT LeftFoot
				{
					OFFSET -0.524474 -53.427422 -12.948200
					CHANNELS 3 Xrotation Yrotation Zrotation
					JOINT LeftToeBase
					{
						OFFSET 0.192200 -14.009700 16.364100
						CHANNELS 3 Xrotation Yrotation Zrotation
						JOINT LeftToe_End
						{
							OFFSET -1.784700 -0.561700 9.474800
							CHANNELS 3 Xrotation Yrotation Zrotation
							End Site
							{
								OFFSET 0 0 0
							}
						}
					}
				}
			}
		}
	}
	JOINT RightUpLeg_virtual
	{
		OFFSET 0.000000 0.000000 0.000000
		CHANNELS 3 Xrotation Yrotation Zrotation
		JOINT RightUpLeg
		{
			OFFSET -12.883000 -6.336304 -1.092800
			CHANNELS 3 Xrotation Yrotation Zrotation
			JOINT RightLeg
			{
				OFFSET -0.524587 -46.096825 9.782800
				CHANNELS 3 Xrotation Yrotation Zrotation
				JOINT RightFoot
				{
					OFFSET 0.524587 -53.427383 -12.948300
					CHANNELS 3 Xrotation Yrotation Zrotation
					JOINT RightToeBase
					{
						OFFSET -0.192200 -14.009700 16.364100
						CHANNELS 3 Xrotation Yrotation Zrotation
						JOINT RightToe_End
						{
							OFFSET 1.784700 -0.561700 9.474800
							CHANNELS 3 Xrotation Yrotation Zrotation
							End Site
							{
								OFFSET 0 0 0
							}
						}
					}
				}
			}
		}
	}
	JOINT Spine_virtual
	{
		OFFSET 0.000000 0.000000 0.000000
		CHANNELS 3 Xrotation Yrotation Zrotation
		JOINT Spine
		{
			OFFSET 0.072000 7.257294 -0.789700
			CHANNELS 3 Xrotation Yrotation Zrotation
			JOINT Spine1
			{
				OFFSET 0.000000 12.508769 -0.658067
				CHANNELS 3 Xrotation Yrotation Zrotation
				JOINT Spine1_split
				{
					OFFSET 0.000000 12.508769 -0.658067
					CHANNELS 3 Xrotation Yrotation Zrotation
					JOINT Spine2
					{
						OFFSET 0.000000 12.508769 -0.658067
						CHANNELS 3 Xrotation Yrotation Zrotation
						JOINT Neck_virtual
						{
							OFFSET 0.000000 0.000000 0.000000
							CHANNELS 3 Xrotation Yrotation Zrotation
							JOINT Neck
							{
								OFFSET 0.000000 14.033295 7.520400
								CHANNELS 3 Xrotation Yrotation Zrotation
								JOINT Head
								{
									OFFSET 0.000000 8.198502 5.703100
									CHANNELS 3 Xrotation Yrotation Zrotation
									JOINT HeadTop_End
									{
										OFFSET 0.000000 17.760803 13.332701
										CHANNELS 3 Xrotation Yrotation Zrotation
										End Site
										{
											OFFSET 0 0 0
										}
									}
								}
							}
						}
						JOINT LeftShoulder_virtual
						{
							OFFSET 0.000000 0.000000 0.000000
							CHANNELS 3 Xrotation Yrotation Zrotation
							JOINT LeftShoulder
							{
								OFFSET 6.292450 5.785301 -0.669000
								CHANNELS 3 Xrotation Yrotation Zrotation
								JOINT LeftShoulder_split
								{
									OFFSET 6.292450 5.785301 -0.669000
									CHANNELS 3 Xrotation Yrotation Zrotation
									JOINT LeftArm
									{
										OFFSET 13.907140 -6.093903 1.965100
										CHANNELS 3 Xrotation Yrotation Zrotation
										JOINT LeftForeArm
										{
											OFFSET 34.140198 0.000000 0.000000
											CHANNELS 3 Xrotation Yrotation Zrotation
											JOINT LeftHand
											{
												OFFSET 40.960209 0.000000 0.000000
												CHANNELS 3 Xrotation Yrotation Zrotation
												End Site
												{
													OFFSET 0 0 0
												}
											}
										}
									}
								}
							}
						}
						JOINT RightShoulder_virtual
						{
							OFFSET 0.000000 0.000000 0.000000
							CHANNELS 3 Xrotation Yrotation Zrotation
							JOINT RightShoulder
							{
								OFFSET -6.292450 5.785301 -0.669000
								CHANNELS 3 Xrotation Yrotation Zrotation
								JOINT RightShoulder_split
								{
									OFFSET -6.292450 5.785301 -0.669000
									CHANNELS 3 Xrotation Yrotation Zrotation
									JOINT RightArm
									{
										OFFSET -13.907140 -6.093903 1.965100
										CHANNELS 3 Xrotation Yrotation Zrotation
										JOINT RightForeArm
										{
											OFFSET -34.140198 0.000000 0.000000
											CHANNELS 3 Xrotation Yrotation Zrotation
											JOINT RightHand
											{
												OFFSET -40.960209 0.000000 0.000000
												CHANNELS 3 Xrotation Yrotation Zrotation
												End Site
												{
													OFFSET 0 0 0
												}
											}
										}
									}
								}
							}
						}
					}
				}
			}
		}
	}
}
MOTION
Frames: 6
Frame Time: 0.03333333
78.085197 115.710426 183.823517 0.000000 0.000000 0.000000 -7.279336 34.805476 10.609144 -13.956435 7.202894 -17.059425 26.810905 -10.267445 0.493495 23.918252 2.829051 18.217824 -37.693085 0.841839 2.663554 0.000000 0.000000 0.000000 -5.330531 35.892798 9.858336 -6.642719 20.805593 -2.989643 39.701147 -4.274990 -0.632953 24.666805 -4.734142 -4.742703 -34.349520 1.379829 3.244990 0.000000 0.000000 0.000000 -6.277419 37.341464 10.021643 4.272021 -1.055830 -6.881241 -1.997091 -1.345442 0.949518 0.827618 0.505638 0.107036 0.000000 0.000000 0.000000 -1.878003 -1.298604 1.308793 -9.010021 3.409240 2.286388 6.270057 6.512439 -2.647281 0.000000 0.000000 0.000000 -2.183313 -0.911498 1.207532 0.853905 8.914257 -3.513326 0.171085 2.922661 -1.256843 6.552276 -8.948197 -68.738669 11.612339 -24.226049 4.388641 0.000000 0.000000 0.000000 -1.789318 -1.185875 1.237315 0.518767 1.846997 3.241579 1.884493 1.601733 -2.644125 -0.372022 7.566422 77.917849 11.606812 15.045623 -3.141694 0.000000 0.000000 0.000000 
80.863678 116.886444 186.808319 0.000000 0.000000 0.000000 -5.814710 36.516708 8.715329 -10.782986 5.508467 -15.786095 24.385579 -11.224414 0.922717 20.765336 4.059867 19.778271 -35.352089 1.334609 1.584627 0.000000 0.000000 0.000000 -4.397925 37.402311 8.188563 -11.980177 22.722839 -1.779735 35.799053 -2.112100 -1.105726 28.457519 -2.181715 -4.423925 -36.198445 0.375665 4.527483 0.000000 0.000000 0.000000 -5.035772 38.011796 8.128409 4.421026 -1.700014 -6.229807 -2.211355 -1.772556 1.073997 0.823350 0.335637 0.216994 0.000000 0.000000 0.000000 -1.906487 -1.666924 1.523404 -8.765929 3.513004 2.642782 6.442778 6.734291 -3.052046 0.000000 0.000000 0.000000 -2.158406 -1.339904 1.405167 0.668757 7.713931 -3.322615 0.313925 3.419805 -1.150712 5.215219 -10.954314 -68.607201 11.726520 -24.763609 4.578547 0.000000 0.000000 0.000000 -1.946121 -1.596587 1.419390 0.261587 0.767621 3.980119 2.275031 1.913768 -2.773812 -0.251449 6.239578 77.347268 11.426562 14.765138 -3.245832 0.000000 0.000000 0.000000 
83.683624 118.001907 189.965042 0.000000 0.000000 0.000000 -4.310533 38.336195 6.704496 -7.476197 4.951420 -14.126872 21.595448 -13.301162 0.943392 17.714925 3.786437 21.267715 -33.959745 1.517428 1.066251 0.000000 0.000000 0.000000 -3.212900 39.255515 6.241674 -15.731886 21.769911 -1.406314 29.842674 0.230486 -1.379147 31.941656 1.006446 -3.559803 -38.299394 -0.351490 4.684216 0.000000 0.000000 0.000000 -3.729841 38.668443 6.142980 4.594033 -2.261960 -5.631257 -2.386266 -2.128601 1.204628 0.896621 0.407360 0.184577 0.000000 0.000000 0.000000 -1.977310 -2.005904 1.670008 -8.597288 3.402196 3.339599 6.354386 6.930958 -3.418283 0.000000 0.000000 0.000000 -2.197262 -1.724586 1.562913 0.510970 6.442644 -3.057815 0.524515 3.781886 -1.031568 3.770611 -12.883741 -68.534296 11.842835 -25.117169 4.803010 0.000000 0.000000 0.000000 -2.040754 -1.974878 1.561172 0.011208 -0.309461 4.865681 2.614499 2.237458 -2.856572 0.132540 4.985667 76.664509 11.316474 14.704924 -3.403400 0.000000 0.000000 0.000000 
86.529793 118.864517 193.098602 0.000000 0.000000 0.000000 -3.003447 40.269443 5.058663 -4.573457 5.805491 -12.399601 19.225270 -16.422165 0.552184 16.198366 1.948682 22.525199 -34.104354 1.291225 1.378931 0.000000 0.000000 0.000000 -2.064782 41.659793 4.551824 -18.289508 18.094571 -2.045661 22.849869 1.609945 -1.147594 33.720279 3.237789 -3.165242 -38.421761 -0.532689 3.888728 0.000000 0.000000 0.000000 -2.802051 39.678953 4.690075 4.870055 -2.774875 -5.367902 -2.457354 -2.424581 1.388286 0.843798 0.713857 0.084412 0.000000 0.000000 0.000000 -2.091581 -2.298297 1.802323 -8.625719 3.069639 4.309192 6.014735 7.118531 -3.659168 0.000000 0.000000 0.000000 -2.290594 -2.045664 1.731742 0.383205 5.225731 -2.589547 0.786446 3.971281 -0.937116 2.318276 -14.550437 -68.565865 11.896288 -25.517411 5.028475 0.000000 0.000000 0.000000 -2.077113 -2.299168 1.709998 -0.210001 -1.320765 5.816059 2.955504 2.552605 -2.861773 0.835046 4.059285 75.843807 11.319748 14.880272 -3.613859 0.000000 0.000000 0.000000 
89.312759 119.230316 196.053375 0.000000 0.000000 0.000000 -2.149628 42.498745 4.106201 -2.478413 7.562320 -10.857541 18.249181 -20.445604 0.046993 16.853932 -0.543865 23.126373 -34.159419 0.966682 1.909782 0.000000 0.000000 0.000000 -1.007709 44.819128 3.422596 -20.279100 12.627877 -3.375338 16.528300 2.111028 -0.632275 33.738010 4.101798 -3.420689 -36.152768 -0.109253 2.409003 0.000000 0.000000 0.000000 -2.637904 41.633794 4.144407 5.258168 -3.280376 -5.674672 -2.396527 -2.677319 1.662517 0.824143 1.112764 -0.093966 0.000000 0.000000 0.000000 -2.194781 -2.524813 1.976366 -8.951824 2.515328 5.456370 5.529981 7.265578 -3.731847 0.000000 0.000000 0.000000 -2.365764 -2.285750 1.972708 0.293900 4.150575 -1.846398 1.099553 3.986577 -0.937802 0.869565 -15.823019 -68.679369 11.865973 -26.144286 5.253730 0.000000 0.000000 0.000000 -2.071342 -2.560242 1.918401 -0.404116 -2.210934 6.811753 3.347494 2.891895 -2.785853 1.677599 3.491197 74.924416 11.422866 15.145658 -3.836902 0.000000 0.000000 0.000000 
92.211021 119.161522 199.311203 0.000000 0.000000 0.000000 -1.611375 44.791418 3.921018 -0.681689 9.910865 -9.929580 17.958493 -23.998845 -0.406947 17.761238 -2.466676 24.147557 -32.429359 0.893352 1.946829 0.000000 0.000000 0.000000 -0.123113 48.359119 2.970678 -22.403070 6.597640 -4.817974 12.210093 1.958405 -0.162957 33.122886 3.817267 -3.477836 -33.094999 0.642698 0.629297 0.000000 0.000000 0.000000 -3.242351 44.447996 4.609785 5.633654 -3.767657 -6.592754 -2.188309 -2.890732 2.029036 0.845620 1.529812 -0.311634 0.000000 0.000000 0.000000 -2.191466 -2.670759 2.234481 -9.550687 1.774953 6.660920 5.071142 7.318350 -3.604577 0.000000 0.000000 0.000000 -2.408440 -2.440451 2.313200 0.237685 3.242582 -0.855120 1.297971 3.792944 -1.039876 -0.589022 -16.554154 -68.875587 11.718553 -26.964151 5.452600 0.000000 0.000000 0.000000 -2.017964 -2.736062 2.212538 -0.559246 -2.939174 7.790681 3.630544 3.062418 -2.562316 2.398580 3.146854 74.013480 11.561226 15.220055 -4.033984 0.000000 0.000000 0.000000 
